<svg xmlns="http://www.w3.org/2000/svg" version="1.1" xmlns:xlink="http://www.w3.org/1999/xlink" xmlns:svgjs="http://svgjs.dev/svgjs" width="297" height="297"><svg width="297" height="297" viewBox="0 0 297 297" fill="none" xmlns="http://www.w3.org/2000/svg">
<g clip-path="url(#clip0_224_2)">
<circle cx="148.5" cy="148.5" r="148.5" fill="white"></circle>
<path d="M201.78 201.215L201.796 201.187L201.812 201.16C206.202 193.461 208.5 185.326 208.5 176.851C208.5 166.372 205.497 157.18 198.884 150.038C193.006 143.43 185.679 138.694 177.07 135.822C169.065 133.025 159.764 130.846 149.236 129.23L148.67 129.144H148.263L145.025 128.659C140.608 127.818 137.285 126.797 134.893 125.704L131.776 132.525L134.893 125.704C132.672 124.688 131.311 123.632 130.487 122.697C130.006 121.937 129.639 120.866 129.639 119.188C129.639 118.225 129.932 117.021 131.031 115.455L131.08 115.385L131.128 115.314C131.954 114.078 133.524 112.657 136.521 111.362L136.616 111.321L136.71 111.278C139.382 110.034 143.08 109.232 148.098 109.232C153.452 109.232 157.147 110.057 159.594 111.235L159.732 111.302L159.873 111.362C162.869 112.657 164.439 114.078 165.266 115.314L165.313 115.385L165.362 115.455C166.461 117.021 166.754 118.225 166.754 119.188V120.169V127.669H174.254H200.607H208.107V120.169V119.188C208.107 110.928 205.782 103.075 201.348 95.7375C196.815 88.0131 189.869 81.9665 181.033 77.4131L177.597 84.0801L181.033 77.4131C171.81 72.6608 160.711 70.5 148.098 70.5C135.601 70.5 124.573 72.6661 115.361 77.4131L118.796 84.0801L115.361 77.4131C106.518 81.9695 99.5331 88.0049 94.8784 95.6886L94.8484 95.738L94.8192 95.788C90.5246 103.13 88.2866 110.965 88.2866 119.188C88.2866 129.047 90.6992 137.828 96.1199 144.923L96.1539 144.968L96.1884 145.012C101.266 151.456 107.562 156.351 115.01 159.601L115.036 159.612L115.062 159.623C122.001 162.589 129.687 164.947 138.083 166.731L138.129 166.741L138.175 166.75L141.125 167.339L141.289 167.371L141.454 167.397C142.973 167.63 144.496 167.922 146.023 168.273L146.218 168.318L146.416 168.352C151.494 169.239 155.68 170.167 159.023 171.119L159.055 171.128L159.088 171.137C162.081 171.961 164.336 173.119 166.037 174.476C166.847 175.123 167.148 175.697 167.148 176.851C167.148 178.328 166.708 179.995 165.421 181.964L165.357 182.062L165.296 182.162C164.367 183.684 162.715 185.289 159.791 186.763C157.16 187.967 153.376 188.768 148.098 188.768C142.861 188.768 139.02 187.915 136.257 186.592C133.333 185.126 131.538 183.493 130.445 181.862C129.315 179.975 128.853 178.21 128.853 176.459V168.959H121.353H95H87.5V176.459C87.5 184.882 89.7043 192.982 93.9363 200.669L93.9633 200.719L93.9911 200.767C98.6074 208.864 105.642 215.271 114.645 220.128C124.015 225.184 135.219 227.5 147.902 227.5C160.661 227.5 171.864 225.268 181.119 220.345L181.139 220.335L181.159 220.324C190.126 215.486 197.155 209.169 201.78 201.215Z" stroke="black" stroke-width="15"></path>
</g>
<defs>
<clipPath id="SvgjsClipPath1016">
<rect width="297" height="297" fill="white"></rect>
</clipPath>
</defs>
</svg><style>@media (prefers-color-scheme: light) { :root { filter: none; } }
@media (prefers-color-scheme: dark) { :root { filter: none; } }
</style></svg>